<?xml version="1.0" encoding="UTF-8"?>
<!-- Generator: https://ezgif.com/png-to-svg -->
<svg version="1.1" xmlns="http://www.w3.org/2000/svg" width="500" height="500">
<path d="M0 0 C1.21 -0 2.42 -0.01 3.67 -0.01 C5 -0.01 6.34 -0.01 7.67 -0 C9.05 -0 10.42 -0.01 11.79 -0.01 C14.68 -0.01 17.58 -0.01 20.47 -0 C24.13 0 27.79 0 31.45 -0 C34.3 -0.01 37.14 -0.01 39.99 -0 C41.98 -0 43.97 -0.01 45.96 -0.01 C88.27 0.1 88.27 0.1 101.73 13.13 C107.04 19.65 108.02 26.86 107.75 35.07 C106.61 43.98 100.58 50.08 94.36 56.13 C94.93 56.36 95.51 56.58 96.11 56.82 C99.75 58.94 101.8 61.46 103.15 65.51 C103.87 68.31 104.5 71.11 105.11 73.94 C105.85 77.3 106.59 80.67 107.36 84.13 C96.14 84.13 84.92 84.13 73.36 84.13 C71.32 80.05 69.83 76.74 68.48 72.5 C66.91 68.07 65.59 65.52 61.36 63.13 C58 62.01 55.48 62.02 51.94 62.03 C50.69 62.03 49.43 62.04 48.14 62.04 C46.17 62.05 46.17 62.05 44.17 62.07 C42.83 62.07 41.5 62.08 40.16 62.08 C36.89 62.09 33.63 62.11 30.36 62.13 C30.36 62.72 30.37 63.32 30.37 63.93 C30.39 66.62 30.41 69.31 30.42 72 C30.43 72.94 30.44 73.88 30.45 74.84 C30.45 75.74 30.45 76.64 30.45 77.56 C30.46 78.39 30.47 79.21 30.47 80.07 C30.36 82.13 30.36 82.13 29.36 84.13 C17.48 84.13 5.6 84.13 -6.64 84.13 C-6.67 73.32 -6.68 62.52 -6.69 51.72 C-6.7 46.7 -6.71 41.68 -6.72 36.67 C-6.73 31.83 -6.74 26.99 -6.74 22.16 C-6.74 20.31 -6.74 18.46 -6.75 16.61 C-6.76 14.02 -6.76 11.44 -6.76 8.86 C-6.76 8.09 -6.76 7.32 -6.77 6.52 C-6.75 0.08 -6.32 0 0 0 Z M29.36 22.13 C29.33 24.78 29.31 27.42 29.29 30.07 C29.29 30.82 29.28 31.58 29.27 32.35 C29.26 34.28 29.3 36.2 29.36 38.13 C32 40.77 39.4 39.4 43.18 39.42 C45.32 39.44 47.46 39.49 49.6 39.53 C57.24 39.62 63.76 39.35 70.36 35.13 C71.66 34.03 71.66 34.03 71.73 31.32 C71.63 28.08 71.63 28.08 69.61 25.88 C61.09 21.29 50.54 21.86 41.11 22 C39.4 22.02 39.4 22.02 37.66 22.03 C34.89 22.05 32.12 22.09 29.36 22.13 Z " fill="#5B17E7" transform="translate(383.642822265625,136.87060546875)"/>
<path d="M0 0 C1.57 -0.02 3.13 -0.04 4.7 -0.08 C6.96 -0.14 9.21 -0.16 11.47 -0.17 C12.17 -0.2 12.87 -0.22 13.59 -0.24 C15.58 -0.23 15.58 -0.23 18.91 0.35 C20.61 2.31 20.61 2.31 21.91 5.35 C22.58 6.74 23.25 8.13 23.92 9.52 C24.68 11.17 25.43 12.81 26.19 14.46 C26.59 15.33 27 16.21 27.42 17.12 C28.71 19.92 30 22.73 31.29 25.54 C32.57 28.33 33.86 31.11 35.14 33.9 C35.94 35.63 36.73 37.36 37.53 39.09 C40.21 44.91 43.02 50.64 45.91 56.35 C48.71 54.95 49.03 53.31 50.31 50.48 C51.02 48.92 51.02 48.92 51.75 47.33 C52.26 46.21 52.77 45.08 53.29 43.91 C54.37 41.55 55.44 39.19 56.52 36.82 C57.08 35.58 57.64 34.35 58.21 33.11 C60.98 27.01 63.79 20.93 66.6 14.85 C67.12 13.73 67.64 12.61 68.17 11.45 C68.88 9.9 68.88 9.9 69.61 8.32 C70.04 7.41 70.46 6.49 70.89 5.55 C71.55 4.14 72.22 2.74 72.91 1.35 C77.14 0.37 81.23 0.22 85.56 0.22 C86.79 0.22 88.03 0.21 89.3 0.21 C91.21 0.22 91.21 0.22 93.16 0.23 C94.46 0.22 95.75 0.22 97.08 0.21 C98.31 0.21 99.54 0.22 100.81 0.22 C101.93 0.22 103.05 0.22 104.21 0.22 C106.91 0.35 106.91 0.35 108.91 1.35 C107.35 6.99 104.6 11.65 101.66 16.66 C100.57 18.55 99.48 20.44 98.39 22.32 C97.82 23.31 97.25 24.3 96.66 25.31 C93.75 30.38 90.89 35.49 88.04 40.6 C87.46 41.63 86.89 42.66 86.29 43.73 C83.21 49.24 80.13 54.76 77.06 60.28 C76.42 61.41 75.79 62.55 75.14 63.71 C73.94 65.87 72.73 68.04 71.53 70.2 C70.71 71.67 70.71 71.67 69.88 73.17 C69.16 74.46 69.16 74.46 68.43 75.77 C67.93 76.62 67.43 77.47 66.91 78.35 C66.36 79.43 65.8 80.52 65.22 81.64 C62.91 84.35 62.91 84.35 59.34 85.03 C57.92 85.03 56.5 85 55.09 84.94 C54.34 84.93 53.59 84.92 52.82 84.91 C50.43 84.88 48.05 84.8 45.66 84.73 C44.05 84.69 42.43 84.67 40.81 84.64 C36.84 84.58 32.88 84.47 28.91 84.35 C28.59 83.75 28.27 83.15 27.94 82.53 C21.25 70 14.39 57.62 7.17 45.39 C2.33 37.16 -2.25 28.8 -6.74 20.37 C-9.37 15.43 -12.07 10.64 -15.2 6.01 C-16.09 4.35 -16.09 4.35 -16.09 1.35 C-11.57 -0.91 -5.01 0.04 0 0 Z " fill="#5C17E7" transform="translate(252.085205078125,136.64990234375)"/>
<path d="M0 0 C31.63 0 31.63 0 36.64 4.46 C40.46 9.28 41.12 12.44 41.16 18.47 C41.17 19.56 41.18 20.66 41.19 21.79 C41.19 22.97 41.2 24.14 41.2 25.36 C41.21 26.58 41.21 27.8 41.22 29.05 C41.23 31.63 41.24 34.21 41.24 36.79 C41.25 40.72 41.28 44.65 41.31 48.59 C41.32 51.09 41.32 53.6 41.33 56.11 C41.34 57.28 41.35 58.45 41.37 59.66 C41.33 73.36 41.33 73.36 36.58 78.55 C26.05 87.77 15.64 83 0 83 C0 55.61 0 28.22 0 0 Z M17 15 C17 32.49 17 49.98 17 68 C18.65 68 20.3 68 22 68 C24.47 65.53 24.25 64.82 24.26 61.41 C24.27 60.46 24.27 59.51 24.28 58.53 C24.27 57.5 24.27 56.47 24.27 55.41 C24.27 54.35 24.27 53.3 24.27 52.21 C24.27 49.98 24.27 47.74 24.26 45.51 C24.25 42.08 24.26 38.65 24.27 35.23 C24.27 33.06 24.27 30.89 24.27 28.72 C24.27 27.69 24.27 26.67 24.28 25.61 C24.27 24.65 24.27 23.7 24.26 22.72 C24.26 21.88 24.26 21.04 24.25 20.17 C24.13 17.71 24.13 17.71 22 15 C20.35 15 18.7 15 17 15 Z " fill="#FDFDFD" transform="translate(140,137)"/>
<path d="M0 0 C4.76 4.18 7.36 8.62 8 15 C8.14 19.02 8.09 22.98 8 27 C2.39 27 -3.22 27 -9 27 C-9.33 23.04 -9.66 19.08 -10 15 C-11.32 14.67 -12.64 14.34 -14 14 C-15.22 15 -15.22 15 -15.12 16.98 C-15.12 17.85 -15.12 18.72 -15.11 19.61 C-15.11 21.08 -15.11 21.08 -15.11 22.58 C-15.11 23.65 -15.1 24.72 -15.1 25.82 C-15.1 27.45 -15.1 27.45 -15.09 29.11 C-15.09 32.59 -15.08 36.08 -15.06 39.56 C-15.06 41.92 -15.05 44.27 -15.05 46.63 C-15.04 52.42 -15.02 58.21 -15 64 C-13.05 64.59 -13.05 64.59 -11 65 C-8.88 62.88 -9.58 58.38 -9.44 55.44 C-9.39 54.63 -9.35 53.82 -9.31 52.99 C-9.2 51 -9.1 49 -9 47 C-10.32 47 -11.64 47 -13 47 C-13 42.05 -13 37.1 -13 32 C-6.07 32 0.86 32 8 32 C8 48.17 8 64.34 8 81 C5.36 81 2.72 81 0 81 C-0.33 79.35 -0.66 77.7 -1 76 C-1.52 76.43 -2.04 76.87 -2.58 77.31 C-7.91 81.35 -11.78 82.8 -18.48 82.39 C-23.2 81.66 -25.95 80.07 -29.25 76.69 C-34.31 68.92 -34.16 59.79 -34.2 50.82 C-34.21 49.86 -34.21 48.89 -34.22 47.9 C-34.23 45.86 -34.24 43.83 -34.24 41.8 C-34.25 38.71 -34.28 35.62 -34.31 32.53 C-34.32 30.55 -34.32 28.56 -34.33 26.57 C-34.35 25.21 -34.35 25.21 -34.37 23.81 C-34.34 16.38 -33.33 8.67 -28.75 2.56 C-21.01 -4.65 -9.03 -5.6 0 0 Z " fill="#FCFCFC" transform="translate(48,139)"/>
<path d="M0 0 C11.22 0 22.44 0 34 0 C34 5.61 34 11.22 34 17 C28.72 17 23.44 17 18 17 C18 21.95 18 26.9 18 32 C22.95 32 27.9 32 33 32 C33 37.28 33 42.56 33 48 C28.05 48 23.1 48 18 48 C18 53.94 18 59.88 18 66 C23.61 66 29.22 66 35 66 C35 71.61 35 77.22 35 83 C23.45 83 11.9 83 0 83 C0 55.61 0 28.22 0 0 Z " fill="#FCFCFC" transform="translate(193,137)"/>
<path d="M0 0 C5.61 0 11.22 0 17 0 C17 22.44 17 44.88 17 68 C22.61 68 28.22 68 34 68 C34 72.95 34 77.9 34 83 C22.78 83 11.56 83 0 83 C0 55.61 0 28.22 0 0 Z " fill="#FCFCFC" transform="translate(68,137)"/>
<path d="M0 0 C5.61 0 11.22 0 17 0 C17 27.39 17 54.78 17 83 C11.39 83 5.78 83 0 83 C0 55.61 0 28.22 0 0 Z " fill="#FCFCFC" transform="translate(111,137)"/>
<path d="M0 0 C1.85 -0 1.85 -0 3.74 -0.01 C5.11 -0.01 6.47 -0.01 7.83 -0 C9.22 -0 10.61 -0.01 12 -0.01 C14.93 -0.01 17.86 -0.01 20.78 -0 C24.52 0 28.25 0 31.98 -0 C34.86 -0.01 37.74 -0.01 40.62 -0 C42 -0 43.37 -0 44.75 -0.01 C51.66 -0.02 58.4 0.04 65.23 1.13 C65.23 1.46 65.23 1.79 65.23 2.13 C64.43 2.14 63.62 2.15 62.8 2.16 C55.22 2.26 47.64 2.36 40.06 2.47 C36.17 2.52 32.27 2.58 28.38 2.63 C24.62 2.67 20.86 2.73 17.1 2.78 C15.66 2.8 14.23 2.82 12.8 2.84 C10.79 2.86 8.78 2.89 6.76 2.92 C5.62 2.94 4.48 2.96 3.3 2.97 C-0.12 3.07 -0.12 3.07 -4.77 4.13 C-4.77 29.87 -4.77 55.61 -4.77 82.13 C6.12 82.13 17.01 82.13 28.23 82.13 C28.23 74.87 28.23 67.61 28.23 60.13 C37.47 60.13 46.71 60.13 56.23 60.13 C56.23 60.46 56.23 60.79 56.23 61.13 C50.35 61.99 44.67 62.25 38.73 62.19 C37.91 62.19 37.09 62.18 36.24 62.18 C34.24 62.17 32.23 62.15 30.23 62.13 C30.24 62.72 30.24 63.32 30.25 63.93 C30.27 66.62 30.28 69.31 30.29 72 C30.3 72.94 30.31 73.88 30.32 74.84 C30.32 75.74 30.32 76.64 30.33 77.56 C30.33 78.39 30.34 79.21 30.34 80.07 C30.23 82.13 30.23 82.13 29.23 84.13 C17.35 84.13 5.47 84.13 -6.77 84.13 C-6.79 73.32 -6.81 62.52 -6.82 51.72 C-6.83 46.7 -6.83 41.68 -6.85 36.67 C-6.86 31.83 -6.86 26.99 -6.86 22.16 C-6.87 20.31 -6.87 18.46 -6.88 16.61 C-6.88 14.02 -6.88 11.44 -6.88 8.86 C-6.89 8.09 -6.89 7.32 -6.89 6.52 C-6.88 0 -6.39 0 0 0 Z " fill="#3911BB" transform="translate(383.769775390625,136.87060546875)"/>
<path d="M0 0 C1.57 -0.02 3.13 -0.04 4.7 -0.08 C6.96 -0.14 9.21 -0.16 11.47 -0.17 C12.17 -0.2 12.87 -0.22 13.59 -0.24 C15.58 -0.23 15.58 -0.23 18.91 0.35 C20.68 2.48 20.68 2.48 21.91 5.35 C22.43 6.36 22.95 7.38 23.48 8.42 C24.93 11.43 26.38 14.45 27.81 17.47 C28.42 18.77 29.05 20.07 29.68 21.36 C30.59 23.24 31.48 25.12 32.37 27.01 C32.91 28.13 33.44 29.25 34 30.41 C34.91 33.35 34.91 33.35 34.07 35.75 C33.69 36.28 33.31 36.8 32.91 37.35 C30.45 35.52 29.08 34.12 28.43 31.08 C28.19 28.84 28.01 26.61 27.91 24.35 C24.94 24.85 24.94 24.85 21.91 25.35 C21.91 23.35 21.91 23.35 23.91 21.35 C23.79 19.15 23.79 19.15 23.16 16.79 C22.98 15.98 22.8 15.18 22.62 14.35 C22.11 12.16 22.11 12.16 19.91 11.35 C19.51 9.03 19.17 6.69 18.91 4.35 C14.67 4.12 10.42 3.92 6.16 3.73 C4.96 3.66 3.75 3.6 2.51 3.53 C0.77 3.45 0.77 3.45 -1.01 3.37 C-2.08 3.32 -3.14 3.27 -4.24 3.21 C-7.11 3.35 -8.67 3.86 -11.09 5.35 C-11.09 6.34 -11.09 7.33 -11.09 8.35 C-10.43 8.35 -9.77 8.35 -9.09 8.35 C-8.76 10.99 -8.43 13.63 -8.09 16.35 C-16.09 6.92 -16.09 6.92 -16.09 1.35 C-11.57 -0.91 -5.01 0.04 0 0 Z " fill="#511AD0" transform="translate(252.085205078125,136.64990234375)"/>
<path d="M0 0 C0.68 -0 1.36 -0 2.06 -0 C3.49 -0 4.92 -0 6.36 0 C8.55 0.01 10.75 0 12.95 -0 C14.34 -0 15.73 -0 17.12 0 C19.03 0 19.03 0 20.97 0 C24 0.13 24 0.13 26 1.13 C25.39 3.15 24.72 5.15 24 7.13 C23.34 7.46 22.68 7.79 22 8.13 C22.33 6.48 22.66 4.83 23 3.13 C22.31 3.17 21.62 3.2 20.9 3.24 C17.75 3.4 14.59 3.55 11.43 3.7 C10.35 3.75 9.26 3.81 8.14 3.87 C2.6 4.12 -2.55 4.19 -8 3.13 C-7.67 5.44 -7.34 7.75 -7 10.13 C-10.75 11.26 -10.75 11.26 -13 10.13 C-13.29 11.27 -13.58 12.4 -13.88 13.57 C-14.25 14.75 -14.62 15.92 -15 17.13 C-15.66 17.46 -16.32 17.79 -17 18.13 C-13.23 5.78 -13.23 5.78 -10 1.13 C-6.49 -0.04 -3.7 0 0 0 Z " fill="#4212B8" transform="translate(335.00390625,136.8671875)"/>
<path d="M0 0 C0.66 0 1.32 0 2 0 C2 0.99 2 1.98 2 3 C2.6 2.5 3.2 2.01 3.81 1.5 C6 0 6 0 9 0 C9 0.66 9 1.32 9 2 C8.34 2 7.68 2 7 2 C6.67 4.64 6.34 7.28 6 10 C17.22 10.33 28.44 10.66 40 11 C39.5 9.02 39.5 9.02 39 7 C39.99 6.67 40.98 6.34 42 6 C42 5.34 42 4.68 42 4 C42.66 4 43.32 4 44 4 C44.33 2.68 44.66 1.36 45 0 C45.66 0.33 46.32 0.66 47 1 C46.02 2.81 45.04 4.63 44.06 6.44 C43.24 7.95 43.24 7.95 42.41 9.5 C41 12 41 12 40 13 C37.48 13.09 34.99 13.12 32.46 13.1 C31.33 13.1 31.33 13.1 30.18 13.09 C27.77 13.09 25.35 13.08 22.94 13.06 C21.3 13.06 19.67 13.05 18.04 13.05 C14.02 13.04 10.01 13.02 6 13 C4.99 11.21 4 9.42 3 7.62 C2.16 6.13 2.16 6.13 1.31 4.6 C0 2 0 2 0 0 Z " fill="#5320C4" transform="translate(275,208)"/>
<path d="M0 0 C1.09 0 1.09 0 2.21 0 C4.54 0.01 6.88 0.02 9.21 0.04 C10.79 0.04 12.37 0.04 13.95 0.05 C17.83 0.06 21.71 0.08 25.59 0.1 C26.08 1.09 26.08 1.09 26.59 2.1 C25.39 2.13 25.39 2.13 24.17 2.16 C20.56 2.25 16.95 2.36 13.34 2.47 C11.45 2.52 11.45 2.52 9.54 2.57 C8.33 2.61 7.12 2.64 5.88 2.68 C4.22 2.73 4.22 2.73 2.52 2.78 C-0.3 3.09 -2.01 3.64 -4.41 5.1 C-4.41 6.09 -4.41 7.08 -4.41 8.1 C-3.75 8.1 -3.09 8.1 -2.41 8.1 C-2.08 10.74 -1.75 13.38 -1.41 16.1 C-9.41 6.67 -9.41 6.67 -9.41 1.1 C-6.4 -0.41 -3.3 -0.02 0 0 Z " fill="#3C11A7" transform="translate(245.4140625,136.90234375)"/>
<path d="M0 0 C2.06 -0.08 4.12 -0.14 6.19 -0.19 C7.34 -0.22 8.48 -0.26 9.67 -0.29 C13.3 0.03 15.11 0.82 18 3 C19.12 5.25 19.13 6.51 19.12 9 C19.13 10.05 19.13 10.05 19.13 11.12 C19 13 19 13 18 15 C16.68 14.67 15.36 14.34 14 14 C14.66 13.34 15.32 12.68 16 12 C16.5 9.04 16.5 9.04 16 6 C12.91 2.94 9.97 2.41 5.75 1.81 C4.67 1.65 3.59 1.5 2.48 1.33 C1.66 1.22 0.84 1.11 0 1 C0 0.67 0 0.34 0 0 Z " fill="#4D1ABF" transform="translate(438,159)"/>
<path d="M0 0 C1.32 0.66 2.64 1.32 4 2 C3.2 2.62 2.39 3.24 1.56 3.88 C-1.04 5.74 -1.04 5.74 -2 8 C-1.4 8.27 -0.8 8.54 -0.19 8.81 C2 10 3.41 11.1 5 13 C5 13.66 5 14.32 5 15 C3.12 14.81 3.12 14.81 1 14 C0.69 13.18 0.38 12.35 0.06 11.5 C-0.29 10.68 -0.64 9.85 -1 9 C-3.55 8.11 -3.55 8.11 -6 8 C-6 7.34 -6 6.68 -6 6 C-5.34 6 -4.68 6 -4 6 C-4.33 5.01 -4.66 4.02 -5 3 C-3.35 2.67 -1.7 2.34 0 2 C0 1.34 0 0.68 0 0 Z " fill="#4315BF" transform="translate(480,185)"/>
<path d="M0 0 C0.33 0.66 0.66 1.32 1 2 C1.99 2.33 2.98 2.66 4 3 C5.8 6.42 6.22 9.17 6 13 C2.65 9.19 0.83 5.67 -1 1 C-0.67 0.67 -0.34 0.34 0 0 Z " fill="#4F1EC7" transform="translate(269,195)"/>
<path d="M0 0 C0.99 0 1.98 0 3 0 C1.55 3.79 -0.15 7.39 -2 11 C-2.95 8.83 -3.14 7.44 -2.4 5.18 C-1.64 3.43 -0.82 1.71 0 0 Z " fill="#4B1BC0" transform="translate(343,165)"/>
</svg>
